<?xml version="1.0" encoding="utf-8"?>
<!-- Generator: Adobe Illustrator 24.3.2, SVG Export Plug-In . SVG Version: 6.00 Build 0)  -->
<svg version="1.1" xmlns="http://www.w3.org/2000/svg" xmlns:xlink="http://www.w3.org/1999/xlink" x="0px" y="0px"
	 viewBox="0 0 70 70" style="enable-background:new 0 0 70 70;" xml:space="preserve">
<style type="text/css">
	.st0{fill:#FFFFFF;}
	.st1{fill:#373B36;}
</style>
<g id="Capa_1">
</g>
<g id="Capa_2">
	<g>
		<path class="st0" d="M58.1,62.5l2-2.3c2.6-2.9,2.4-7.4-0.5-10l-3.4-3.1c-1.3-1.2-3-1.8-4.7-1.8c-2,0-3.9,0.8-5.2,2.3l-2,2.3
			c-0.7,0.7-1.1,1.6-1.5,2.5l-1,2.9L39,54.1c-9.7-3.8-17.5-11-22.2-20.3l-1.5-3.1l3.3-1c1.2-0.4,2.3-1.1,3.2-2l0,0l2-2.3
			c1.3-1.4,1.9-3.2,1.8-5.1c-0.1-1.9-0.9-3.6-2.3-4.9l-3.4-3.1c-1.3-1.2-3-1.8-4.7-1.8c-2,0-3.9,0.8-5.2,2.3l-2,2.3
			c-0.2,0.2-0.4,0.5-0.6,0.7l-0.4,0.5l-0.1,0.1c-1.1,1-2.7,4.1-1.8,8.4c4.2,21.9,22.6,38.5,44.8,40.5c2.5,0.2,4.9-0.3,6.6-1.3
			C57.1,63.5,57.6,63,58.1,62.5z"/>
		<path class="st1" d="M37.8,0c-1.2,0-2.2,1-2.2,2.2c0,1.2,1,2.2,2.2,2.2c15.4,0,27.9,12.5,27.9,27.9c0,1.2,1,2.2,2.2,2.2
			c1.2,0,2.2-1,2.2-2.2C70,14.5,55.5,0,37.8,0z M59.4,43.7c-2.2-2-5-3-7.9-3c-3.3,0-6.5,1.4-8.7,3.9l-2,2.3
			c-0.7,0.7-1.2,1.5-1.7,2.4c-7.3-3.3-13.3-8.7-17.2-15.7c1.2-0.6,2.4-1.5,3.3-2.6l2-2.3c2.1-2.3,3.2-5.3,3-8.5
			c-0.2-3.1-1.5-6-3.9-8.1L23,8.9c-2.2-2-5-3-7.9-3c-3.3,0-6.5,1.4-8.7,3.9l-2,2.3c-0.3,0.3-0.6,0.7-0.8,1
			c-2.4,2.2-4.3,6.9-3.2,12.6c4.6,23.9,24.7,42.1,49,44.3c0.5,0,1.1,0.1,1.6,0.1c2.9,0,5.7-0.7,7.8-2.1c1.1-0.6,2-1.4,2.9-2.3l2-2.3
			c4.3-4.8,4-12.2-0.8-16.6L59.4,43.7z M60.2,60.2l-2,2.3c-0.5,0.5-1.1,1-1.8,1.4c-1.8,1.1-4.1,1.6-6.6,1.3
			c-22.2-2-40.6-18.6-44.8-40.5c-0.8-4.2,0.7-7.4,1.8-8.4l0.1-0.1l0.4-0.5c0.2-0.3,0.4-0.5,0.6-0.7l2-2.3c1.3-1.5,3.2-2.3,5.2-2.3
			c1.7,0,3.4,0.6,4.7,1.8l3.4,3.1c1.4,1.3,2.2,3,2.3,4.9c0.1,1.9-0.5,3.7-1.8,5.1l-2,2.3l0,0c-0.9,1-2,1.7-3.2,2l-3.3,1l1.5,3.1
			c4.6,9.3,12.5,16.5,22.2,20.3l2.8,1.1l1-2.9c0.3-0.9,0.8-1.8,1.5-2.5l2-2.3c1.3-1.5,3.2-2.3,5.2-2.3c1.7,0,3.4,0.6,4.7,1.8
			l3.4,3.1C62.6,52.9,62.8,57.3,60.2,60.2z M54.9,32.6c0,1.2,1,2.2,2.2,2.2c1.2,0,2.2-1,2.2-2.2c0-12.1-9.8-21.9-21.9-21.9
			c-1.2,0-2.2,1-2.2,2.2c0,1.2,1,2.2,2.2,2.2C47.1,15.1,54.9,22.9,54.9,32.6z"/>
	</g>
</g>
</svg>
